<?xml version="1.0" encoding="UTF-8"?>
<svg version="1.1" xmlns="http://www.w3.org/2000/svg" width="500" height="500">
<path d="M0 0 C0.90045044 -0.00705963 1.80090088 -0.01411926 2.7286377 -0.02139282 C40.56271231 -0.2507174 40.56271231 -0.2507174 57.20703125 3.203125 C58.69759033 3.50911621 58.69759033 3.50911621 60.21826172 3.82128906 C82.21378087 8.47295034 102.99514255 15.36588877 123.20703125 25.203125 C123.94405273 25.56132324 124.68107422 25.91952148 125.44042969 26.28857422 C144.89901796 35.8774365 162.98020988 48.4248097 178.93359375 63.11328125 C181.05333337 65.06183915 183.21186594 66.95069833 185.39453125 68.828125 C191.89170121 74.51964589 197.4893498 80.59900765 202.8984375 87.33984375 C204.36112473 89.1539719 205.84574865 90.95080689 207.359375 92.72265625 C240.62231866 131.88029879 262.13973065 186.51250595 262.41015625 237.99609375 C262.41721588 238.89654419 262.42427551 239.79699463 262.43154907 240.72473145 C262.66087365 278.55880606 262.66087365 278.55880606 259.20703125 295.203125 C258.90104004 296.69368408 258.90104004 296.69368408 258.58886719 298.21435547 C253.93720591 320.20987462 247.04426748 340.9912363 237.20703125 361.203125 C236.84883301 361.94014648 236.49063477 362.67716797 236.12158203 363.43652344 C226.53271975 382.89511171 213.98534655 400.97630363 199.296875 416.9296875 C197.3483171 419.04942712 195.45945792 421.20795969 193.58203125 423.390625 C187.89051036 429.88779496 181.8111486 435.48544355 175.0703125 440.89453125 C173.25618435 442.35721848 171.45934936 443.8418424 169.6875 445.35546875 C130.52985746 478.61841241 75.8976503 500.1358244 24.4140625 500.40625 C23.06338684 500.41683945 23.06338684 500.41683945 21.6854248 500.42764282 C-16.14864981 500.6569674 -16.14864981 500.6569674 -32.79296875 497.203125 C-34.28352783 496.89713379 -34.28352783 496.89713379 -35.80419922 496.58496094 C-57.79971837 491.93329966 -78.58108005 485.04036123 -98.79296875 475.203125 C-99.52999023 474.84492676 -100.26701172 474.48672852 -101.02636719 474.11767578 C-120.48495546 464.5288135 -138.56614738 451.9814403 -154.51953125 437.29296875 C-156.63927087 435.34441085 -158.79780344 433.45555167 -160.98046875 431.578125 C-167.47763871 425.88660411 -173.0752873 419.80724235 -178.484375 413.06640625 C-179.94706223 411.2522781 -181.43168615 409.45544311 -182.9453125 407.68359375 C-216.20825616 368.52595121 -237.72566815 313.89374405 -237.99609375 262.41015625 C-238.00315338 261.50970581 -238.01021301 260.60925537 -238.01748657 259.68151855 C-238.24681115 221.84744394 -238.24681115 221.84744394 -234.79296875 205.203125 C-234.48697754 203.71256592 -234.48697754 203.71256592 -234.17480469 202.19189453 C-229.52314341 180.19637538 -222.63020498 159.4150137 -212.79296875 139.203125 C-212.43477051 138.46610352 -212.07657227 137.72908203 -211.70751953 136.96972656 C-202.11865725 117.51113829 -189.57128405 99.42994637 -174.8828125 83.4765625 C-172.9342546 81.35682288 -171.04539542 79.19829031 -169.16796875 77.015625 C-163.47644786 70.51845504 -157.3970861 64.92080645 -150.65625 59.51171875 C-148.84212185 58.04903152 -147.04528686 56.5644076 -145.2734375 55.05078125 C-106.11579496 21.78783759 -51.4835878 0.2704256 0 0 Z " fill="#FEFEFE" transform="translate(237.79296875,-0.203125)"/>
<path d="M0 0 C7.81452752 -0.02526563 15.62904458 -0.04283105 23.44360352 -0.05493164 C26.10441481 -0.05997383 28.76522332 -0.06680736 31.42602539 -0.07543945 C35.24105516 -0.08751009 39.05604844 -0.09322929 42.87109375 -0.09765625 C44.66793861 -0.10539818 44.66793861 -0.10539818 46.50108337 -0.11329651 C48.15268211 -0.11340981 48.15268211 -0.11340981 49.83764648 -0.11352539 C50.81249496 -0.115746 51.78734344 -0.11796661 52.79173279 -0.12025452 C55 0 55 0 56 1 C56.31489688 2.32714818 56.57719969 3.66686604 56.81616211 5.00976562 C57.04661476 6.28744812 57.04661476 6.28744812 57.28172302 7.59094238 C57.44527786 8.5199939 57.6088327 9.44904541 57.77734375 10.40625 C57.94875381 11.36011597 58.12016388 12.31398193 58.29676819 13.29675293 C58.8474107 16.36384749 59.39277134 19.43185004 59.9375 22.5 C60.47936359 25.539452 61.02239021 28.57868579 61.56752014 31.61755371 C61.90685811 33.51049473 62.24423975 35.40378786 62.57933044 37.29748535 C63.58122558 42.90168846 64.72921284 48.45039107 66 54 C66.80244141 52.92492187 66.80244141 52.92492187 67.62109375 51.828125 C80.44116162 36.58719045 101.62260944 27.11732798 121.125 24.8125 C122.42695313 24.65394531 123.72890625 24.49539062 125.0703125 24.33203125 C126.03710938 24.22246094 127.00390625 24.11289063 128 24 C128.14622803 23.34402832 128.29245605 22.68805664 128.44311523 22.01220703 C129.10521028 19.04919382 129.77130419 16.08709377 130.4375 13.125 C130.66759766 12.09246094 130.89769531 11.05992187 131.13476562 9.99609375 C131.35712891 9.00996094 131.57949219 8.02382812 131.80859375 7.0078125 C132.01282959 6.09660645 132.21706543 5.18540039 132.42749023 4.24658203 C133 2 133 2 134 0 C155.45 0 176.9 0 199 0 C200.010625 4.95 201.02125 9.9 202.0625 15 C204.47398282 26.74413134 206.93315794 38.47629446 209.5 50.1875 C209.71561081 51.17124603 209.71561081 51.17124603 209.93557739 52.17486572 C211.79363585 60.63749745 213.69859764 69.08877247 215.625 77.53613281 C218.54697011 90.35562444 221.31277607 103.19312647 223.93548584 116.07675171 C226.08480008 126.63202821 228.31148316 137.16697003 230.625 147.6875 C230.7702713 148.34872864 230.9155426 149.00995728 231.06521606 149.69122314 C232.30249077 155.32028058 233.54571629 160.94801648 234.79150391 166.57519531 C235.50933089 169.82041954 236.22363337 173.06640278 236.9375 176.3125 C237.14906738 177.2614917 237.36063477 178.2104834 237.57861328 179.18823242 C237.76794434 180.05037354 237.95727539 180.91251465 238.15234375 181.80078125 C238.31726318 182.54497314 238.48218262 183.28916504 238.65209961 184.0559082 C239 186 239 186 239 189 C240.32 189 241.64 189 243 189 C243.09023438 187.74703125 243.18046875 186.4940625 243.2734375 185.203125 C244.04388754 177.54157651 245.61915541 170.02174116 247.09378052 162.47134399 C248.01089868 157.7731089 248.91237704 153.07186157 249.81640625 148.37109375 C250.00091843 147.41381882 250.1854306 146.45654388 250.37553406 145.47026062 C252.14889487 136.2591175 253.8672643 127.03830549 255.5625 117.8125 C255.77608658 116.6517395 255.77608658 116.6517395 255.99398804 115.4675293 C257.58890385 106.79356393 259.16291886 98.11605259 260.7109375 89.43359375 C260.92404823 88.23843643 260.92404823 88.23843643 261.14146423 87.01913452 C261.35507347 85.82098618 261.35507347 85.82098618 261.57299805 84.59863281 C261.86114871 82.98241891 262.14931601 81.36620796 262.4375 79.75 C262.64978745 78.55908752 262.64978745 78.55908752 262.86636353 77.34411621 C265.98725947 59.8610712 269.30535741 42.41640961 272.66578674 24.97799683 C273.41441189 21.08683931 274.15161353 17.1941284 274.86523438 13.29638672 C275.00161316 12.55468735 275.13799194 11.81298798 275.27850342 11.04881287 C275.64746863 9.0355194 276.01282714 7.02156589 276.37792969 5.00756836 C277 2 277 2 278 0 C295.16 0 312.32 0 330 0 C328.18836871 10.26591064 326.35663286 20.19742863 323.8125 30.25 C320.9972482 41.62603898 318.43894103 53.03803848 316 64.5 C313.37376894 76.82775773 310.58270188 89.09069613 307.57202148 101.33129883 C305.43010817 110.08781939 303.4623088 118.87593703 301.5625 127.6875 C299.16178439 138.82184466 296.63610374 149.91902874 294 161 C291.33024698 172.22784466 288.76004663 183.47156851 286.3125 194.75 C286.16866882 195.41226593 286.02483765 196.07453186 285.87664795 196.75686646 C285.18089831 199.96103902 284.48570121 203.16533139 283.79052734 206.36962891 C282.58704749 211.89641874 281.3645776 217.41870089 280.125 222.9375 C279.92173096 223.85563477 279.71846191 224.77376953 279.5090332 225.71972656 C278.11644141 231.88355859 278.11644141 231.88355859 277 233 C274.79132169 233.09432985 272.57958479 233.11742431 270.36889648 233.11352539 C269.67624695 233.11367142 268.98359741 233.11381744 268.2699585 233.1139679 C265.97030554 233.11326874 263.67073263 233.10547628 261.37109375 233.09765625 C259.78068588 233.09579208 258.19027743 233.09436817 256.59986877 233.09336853 C252.4060407 233.08954329 248.21224705 233.07971295 244.01843262 233.06866455 C239.74211086 233.05845057 235.46578356 233.05387094 231.18945312 233.04882812 C222.79295292 233.03809069 214.39648074 233.02101419 206 233 C202.78447094 221.48844115 202.78447094 221.48844115 201.7890625 216.046875 C201.59852295 215.02577637 201.4079834 214.00467773 201.21166992 212.95263672 C201.01806885 211.8957666 200.82446777 210.83889648 200.625 209.75 C198.31934768 197.44546347 195.73022851 185.2166752 193 173 C190.04159608 173 188.9731979 174.58598857 186.75 176.5 C171.71983357 188.71876839 151.67142847 198.17506321 132 197 C131.87496094 197.93972656 131.74992188 198.87945312 131.62109375 199.84765625 C130.92121073 204.73945729 129.99029698 209.58467344 129.0625 214.4375 C128.89298828 215.34048828 128.72347656 216.24347656 128.54882812 217.17382812 C128.37931641 218.06392578 128.20980469 218.95402344 128.03515625 219.87109375 C127.8844165 220.66443115 127.73367676 221.45776855 127.57836914 222.27514648 C126.81494809 225.8718296 125.89175772 229.43296912 125 233 C100.91 233 76.82 233 52 233 C47.41498932 215.80620995 47.41498932 215.80620995 45.88671875 208.40234375 C45.71170837 207.57313416 45.536698 206.74392456 45.35638428 205.8895874 C44.98693155 204.13890523 44.61903393 202.38789419 44.25265503 200.63656616 C41.45711447 187.28562961 38.5897598 173.95920936 35.4375 160.6875 C32.79203631 149.54951406 30.33136048 138.38175668 27.9375 127.1875 C25.73824642 116.90808276 23.49887111 106.64927401 21 96.4375 C17.06622366 80.3520993 13.54084261 64.17554415 10 48 C9.81872559 47.1722406 9.63745117 46.3444812 9.45068359 45.49163818 C8.34676488 40.44804291 7.24658072 35.40364997 6.15081787 30.35827637 C5.8051633 28.7669413 5.45902679 27.17571083 5.11236572 25.58459473 C4.62762502 23.35760016 4.14547063 21.13006081 3.6640625 18.90234375 C3.39029785 17.63898193 3.1165332 16.37562012 2.83447266 15.07397461 C1.78164181 10.06977561 0.89639803 5.03412774 0 0 Z " fill="#38AFF5" transform="translate(85,133)"/>
<path d="M0 0 C21.45 0 42.9 0 65 0 C66.010625 4.95 67.02125 9.9 68.0625 15 C70.47398282 26.74413134 72.93315794 38.47629446 75.5 50.1875 C75.64374054 50.84333069 75.78748108 51.49916138 75.93557739 52.17486572 C77.79363585 60.63749745 79.69859764 69.08877247 81.625 77.53613281 C84.54697011 90.35562444 87.31277607 103.19312647 89.93548584 116.07675171 C92.08480008 126.63202821 94.31148316 137.16697003 96.625 147.6875 C96.7702713 148.34872864 96.9155426 149.00995728 97.06521606 149.69122314 C98.30249077 155.32028058 99.54571629 160.94801648 100.79150391 166.57519531 C101.50933089 169.82041954 102.22363337 173.06640278 102.9375 176.3125 C103.14906738 177.2614917 103.36063477 178.2104834 103.57861328 179.18823242 C103.76794434 180.05037354 103.95727539 180.91251465 104.15234375 181.80078125 C104.31726318 182.54497314 104.48218262 183.28916504 104.65209961 184.0559082 C105 186 105 186 105 189 C106.32 189 107.64 189 109 189 C109.09023438 187.74703125 109.18046875 186.4940625 109.2734375 185.203125 C110.04388754 177.54157651 111.61915541 170.02174116 113.09378052 162.47134399 C114.01089868 157.7731089 114.91237704 153.07186157 115.81640625 148.37109375 C116.00091843 147.41381882 116.1854306 146.45654388 116.37553406 145.47026062 C118.14889487 136.2591175 119.8672643 127.03830549 121.5625 117.8125 C121.77608658 116.6517395 121.77608658 116.6517395 121.99398804 115.4675293 C123.58890385 106.79356393 125.16291886 98.11605259 126.7109375 89.43359375 C126.85301132 88.6368222 126.99508514 87.84005066 127.14146423 87.01913452 C127.35507347 85.82098618 127.35507347 85.82098618 127.57299805 84.59863281 C127.86114871 82.98241891 128.14931601 81.36620796 128.4375 79.75 C128.64978745 78.55908752 128.64978745 78.55908752 128.86636353 77.34411621 C131.98725947 59.8610712 135.30535741 42.41640961 138.66578674 24.97799683 C139.41441189 21.08683931 140.15161353 17.1941284 140.86523438 13.29638672 C141.00161316 12.55468735 141.13799194 11.81298798 141.27850342 11.04881287 C141.64746863 9.0355194 142.01282714 7.02156589 142.37792969 5.00756836 C143 2 143 2 144 0 C161.16 0 178.32 0 196 0 C194.18836871 10.26591064 192.35663286 20.19742863 189.8125 30.25 C186.9972482 41.62603898 184.43894103 53.03803848 182 64.5 C179.37376894 76.82775773 176.58270188 89.09069613 173.57202148 101.33129883 C171.43010817 110.08781939 169.4623088 118.87593703 167.5625 127.6875 C165.16178439 138.82184466 162.63610374 149.91902874 160 161 C157.33024698 172.22784466 154.76004663 183.47156851 152.3125 194.75 C152.16866882 195.41226593 152.02483765 196.07453186 151.87664795 196.75686646 C151.18089831 199.96103902 150.48570121 203.16533139 149.79052734 206.36962891 C148.58704749 211.89641874 147.3645776 217.41870089 146.125 222.9375 C145.92173096 223.85563477 145.71846191 224.77376953 145.5090332 225.71972656 C144.11644141 231.88355859 144.11644141 231.88355859 143 233 C140.79132169 233.09432985 138.57958479 233.11742431 136.36889648 233.11352539 C135.67624695 233.11367142 134.98359741 233.11381744 134.2699585 233.1139679 C131.97030554 233.11326874 129.67073263 233.10547628 127.37109375 233.09765625 C125.78068588 233.09579208 124.19027743 233.09436817 122.59986877 233.09336853 C118.4060407 233.08954329 114.21224705 233.07971295 110.01843262 233.06866455 C105.74211086 233.05845057 101.46578356 233.05387094 97.18945312 233.04882812 C88.79295292 233.03809069 80.39648074 233.02101419 72 233 C68.78447094 221.48844115 68.78447094 221.48844115 67.7890625 216.046875 C67.59844238 215.0261792 67.40782227 214.0054834 67.21142578 212.95385742 C67.01790527 211.89658447 66.82438477 210.83931152 66.625 209.75 C64.78735866 199.8767765 62.76540464 190.0676663 60.43603516 180.29785156 C60.23284668 179.40936523 60.0296582 178.52087891 59.8203125 177.60546875 C59.63742676 176.83356201 59.45454102 176.06165527 59.26611328 175.26635742 C58.85135133 171.73403157 59.26990003 168.97145533 61.41796875 166.11328125 C62.00191406 165.51902344 62.58585937 164.92476562 63.1875 164.3125 C69.66854954 157.15826608 73.39335029 149.4764156 76.75 140.5 C77.04390625 139.71713623 77.3378125 138.93427246 77.640625 138.12768555 C84.48119433 119.10433144 84.4298182 97.29866219 76.1640625 78.70703125 C66.45455775 58.12609954 51.73432687 40.38580287 30 32 C18.50728464 27.94388224 7.2464488 25.04116453 -5 25 C-4.36702415 16.13833805 -2.24641912 8.98567647 0 0 Z " fill="#010101" transform="translate(219,133)"/>
<path d="M0 0 C7.81452752 -0.02526563 15.62904458 -0.04283105 23.44360352 -0.05493164 C26.10441481 -0.05997383 28.76522332 -0.06680736 31.42602539 -0.07543945 C35.24105516 -0.08751009 39.05604844 -0.09322929 42.87109375 -0.09765625 C44.66793861 -0.10539818 44.66793861 -0.10539818 46.50108337 -0.11329651 C48.15268211 -0.11340981 48.15268211 -0.11340981 49.83764648 -0.11352539 C50.81249496 -0.115746 51.78734344 -0.11796661 52.79173279 -0.12025452 C55 0 55 0 56 1 C56.31995027 2.31637819 56.58762199 3.64555451 56.83203125 4.97802734 C56.98889404 5.82336029 57.14575684 6.66869324 57.30737305 7.53964233 C57.47406494 8.46241974 57.64075684 9.38519714 57.8125 10.3359375 C58.07317261 11.75962143 58.07317261 11.75962143 58.33911133 13.21206665 C58.70755168 15.23102299 59.07394375 17.25035401 59.43847656 19.27001953 C59.99156737 22.32837123 60.55390268 25.38491788 61.1171875 28.44140625 C61.47452611 30.40614682 61.83131351 32.37098774 62.1875 34.3359375 C62.35419189 35.2384726 62.52088379 36.14100769 62.69262695 37.07089233 C65.76128219 54.22450963 65.76128219 54.22450963 63.8125 58.76953125 C63.214375 59.44371094 62.61625 60.11789063 62 60.8125 C48.0413825 78.55273499 43.5755537 100.8305136 46 123 C49.60868693 145.12874061 61.34841559 165.13089796 79 179 C81.68234025 180.86711919 84.37718442 182.69375135 87.12890625 184.45703125 C87.74636719 184.96621094 88.36382812 185.47539062 89 186 C89 186.99 89 187.98 89 189 C90.52753906 188.92845703 90.52753906 188.92845703 92.0859375 188.85546875 C96.16540354 189.00610772 98.841899 189.83839513 102.625 191.3125 C112.116464 194.79595749 122.005779 195.84043354 132 197 C131.22108333 202.85392015 130.17133124 208.63777675 129.0625 214.4375 C128.89298828 215.34048828 128.72347656 216.24347656 128.54882812 217.17382812 C128.37931641 218.06392578 128.20980469 218.95402344 128.03515625 219.87109375 C127.8844165 220.66443115 127.73367676 221.45776855 127.57836914 222.27514648 C126.81494809 225.8718296 125.89175772 229.43296912 125 233 C100.91 233 76.82 233 52 233 C47.41498932 215.80620995 47.41498932 215.80620995 45.88671875 208.40234375 C45.71170837 207.57313416 45.536698 206.74392456 45.35638428 205.8895874 C44.98693155 204.13890523 44.61903393 202.38789419 44.25265503 200.63656616 C41.45711447 187.28562961 38.5897598 173.95920936 35.4375 160.6875 C32.79203631 149.54951406 30.33136048 138.38175668 27.9375 127.1875 C25.73824642 116.90808276 23.49887111 106.64927401 21 96.4375 C17.06622366 80.3520993 13.54084261 64.17554415 10 48 C9.81872559 47.1722406 9.63745117 46.3444812 9.45068359 45.49163818 C8.34676488 40.44804291 7.24658072 35.40364997 6.15081787 30.35827637 C5.8051633 28.7669413 5.45902679 27.17571083 5.11236572 25.58459473 C4.62762502 23.35760016 4.14547063 21.13006081 3.6640625 18.90234375 C3.39029785 17.63898193 3.1165332 16.37562012 2.83447266 15.07397461 C1.78164181 10.06977561 0.89639803 5.03412774 0 0 Z " fill="#010101" transform="translate(85,133)"/>
<path d="M0 0 C7.23399265 -0.18589892 13.95561632 -0.01413449 21 1.6875 C22.15363037 1.95868652 22.15363037 1.95868652 23.33056641 2.23535156 C43.81736897 7.2681003 61.92248903 19.86728793 73 38 C74.55806329 40.76739776 75.99154173 43.57916835 77.375 46.4375 C77.69678223 47.09234375 78.01856445 47.7471875 78.35009766 48.421875 C86.89628822 67.04181424 86.9101984 90.1333488 79.91699219 109.17041016 C77.53686554 115.16344092 74.79074459 120.76416493 71 126 C70.53335938 126.70640625 70.06671875 127.4128125 69.5859375 128.140625 C68.46170636 129.81053558 67.24067874 131.41468827 66 133 C65.34 133 64.68 133 64 133 C60.84616206 118.69481409 57.83385202 104.37167812 55 90 C51.67711332 73.18388851 48.26710268 56.3971187 44.58349609 39.65625 C43.60694684 35.21070363 42.64126783 30.76298808 41.6875 26.3125 C41.51589355 25.52786377 41.34428711 24.74322754 41.16748047 23.93481445 C40.43861027 20.51581278 40 17.51477457 40 14 C39.01 14 38.02 14 37 14 C36.90203125 14.74121094 36.8040625 15.48242188 36.703125 16.24609375 C35.81871236 22.47510344 34.68929288 28.57897594 33.1875 34.6875 C31.42695817 41.87624112 29.98779929 49.10096408 28.625 56.375 C26.93799829 65.35491926 25.08805611 74.27794112 23.0625 83.1875 C20.85171298 92.92545666 18.85890754 102.68904837 17 112.5 C14.84512421 123.86686295 12.48565384 135.16883227 9.91601562 146.44921875 C9.67947266 147.48820313 9.44292969 148.5271875 9.19921875 149.59765625 C8.99127686 150.50008057 8.78333496 151.40250488 8.5690918 152.33227539 C7.95525017 155.20977322 7.46380763 158.09487523 7 161 C-6.62688638 161.7674717 -20.26668526 160.75399288 -32 153 C-31.52500001 144.92378847 -29.83504265 137.18233767 -28.02075195 129.32128906 C-27.10374392 125.34371837 -26.20822263 121.36131547 -25.3125 117.37890625 C-25.12328979 116.5388504 -24.93407959 115.69879456 -24.73913574 114.83328247 C-22.55230239 105.07794478 -20.52795863 95.28934276 -18.5 85.5 C-15.39293317 70.52620004 -12.17078705 55.58358255 -8.82617188 40.66113281 C-8.50514811 39.22852912 -8.18418385 37.79591209 -7.86328125 36.36328125 C-7.70755646 35.66810394 -7.55183167 34.97292664 -7.39138794 34.25668335 C-4.84380991 22.85608441 -2.42285956 11.42763483 0 0 Z " fill="#020404" transform="translate(212,163)"/>
<path d="M0 0 C-1.16776575 8.84646157 -2.62723046 17.54062383 -4.5625 26.25 C-5.10317947 28.72909801 -5.64352282 31.20826935 -6.18359375 33.6875 C-6.4789846 35.03646256 -6.77439525 36.38542079 -7.06982422 37.734375 C-8.59375515 44.70738489 -10.0802879 51.68845812 -11.57266235 58.66827393 C-12.12992034 61.27299855 -12.68819999 63.87750208 -13.24682617 66.48193359 C-15.27970477 75.96022005 -17.30788806 85.43948694 -19.32901001 94.92028809 C-20.40975724 99.98872645 -21.49213088 105.0568169 -22.574646 110.12487793 C-23.10359591 112.60331463 -23.63180744 115.08190905 -24.15924072 117.56066895 C-24.90372243 121.05908725 -25.65082619 124.55693684 -26.3984375 128.0546875 C-26.61687317 129.08437653 -26.83530884 130.11406555 -27.06036377 131.17495728 C-28.55624578 138.1568094 -30.22834661 145.08311365 -32 152 C-36.7883606 151.24984741 -36.7883606 151.24984741 -38.69311523 149.0012207 C-40.40982438 145.05885089 -41.16391485 141.20131898 -41.91015625 136.98046875 C-42.07869614 136.07325577 -42.24723602 135.16604279 -42.42088318 134.2313385 C-42.97785126 131.2184292 -43.52024931 128.2030899 -44.0625 125.1875 C-44.44976468 123.07570755 -44.83780026 120.96405634 -45.2265625 118.85253906 C-46.50110833 111.90468394 -47.7527707 104.9528044 -49 98 C-49.33822784 96.11538055 -49.33822784 96.11538055 -49.68328857 94.19268799 C-51.73711601 82.74127909 -53.78677935 71.28913829 -55.81274414 59.83276367 C-56.01859634 58.67087021 -56.22444855 57.50897675 -56.4365387 56.31187439 C-56.82289485 54.12985181 -57.20808304 51.94762199 -57.59190369 49.76515198 C-57.76331375 48.7975444 -57.93472382 47.82993683 -58.11132812 46.83300781 C-58.33375183 45.57124725 -58.33375183 45.57124725 -58.56066895 44.28399658 C-58.96843429 42.16410396 -59.46598972 40.09094482 -60 38 C-60.625 34.875 -60.625 34.875 -60 31 C-50.33618386 16.6232883 -31.94759429 5.84308326 -15.31640625 1.453125 C-10.24107472 0.46031141 -5.16757684 0 0 0 Z " fill="#FCFDFD" transform="translate(212,163)"/>
<path d="M0 0 C0.99 0 1.98 0 3 0 C5.45394537 9.84319985 7.56448617 19.71697511 9.4375 29.6875 C10.9881465 37.93748936 12.65539376 46.13740551 14.5625 54.3125 C16.39146202 62.15988354 18.01182519 70.02043588 19.47412109 77.9440918 C20.36254999 82.73253492 21.30563364 87.50299228 22.32421875 92.265625 C22.55044922 93.32475098 22.77667969 94.38387695 23.00976562 95.47509766 C23.44699551 97.50720861 23.88932913 99.53823135 24.33789062 101.56787109 C28.04849839 118.84353615 28.04849839 118.84353615 25.69140625 123.69140625 C9.57401803 137.85696397 -8.31006197 146.93685608 -30 147 C-29.38311121 140.7271861 -28.43193208 134.64774535 -27.14453125 128.48046875 C-26.96240585 127.59231979 -26.78028046 126.70417084 -26.59263611 125.78910828 C-26.00328969 122.92105771 -25.40801518 120.05427543 -24.8125 117.1875 C-24.40176512 115.19487637 -23.99128515 113.20220019 -23.58105469 111.20947266 C-21.12633874 99.31037813 -18.60752126 87.42651244 -16.02856445 75.55371094 C-14.17746163 66.97760125 -12.52244515 58.37139854 -10.90014648 49.74951172 C-8.93796685 39.43761473 -6.6529099 29.20492255 -4.33203125 18.96875 C-3.28412968 14.34045618 -2.32403822 9.70259203 -1.4362793 5.04101562 C-1 3 -1 3 0 0 Z " fill="#FCFCFC" transform="translate(249,177)"/>
<path d="M0 0 C1.32 0 2.64 0 4 0 C4.11301302 8.10927345 3.77418513 16.13669952 3.23046875 24.2265625 C3.14879959 25.45482758 3.06713043 26.68309265 2.98298645 27.94857788 C2.80940377 30.52868915 2.63364574 33.10865491 2.45581055 35.68847656 C2.18785532 39.61978695 1.93659947 43.55195384 1.68554688 47.484375 C1.51405167 50.00267458 1.34155945 52.5209065 1.16796875 55.0390625 C1.05995186 56.78783188 1.05995186 56.78783188 0.94975281 58.57192993 C0.34600907 66.92612306 -1.17310975 74.22192363 -5.3203125 81.56640625 C-5.7652002 82.36651123 -6.21008789 83.16661621 -6.66845703 83.9909668 C-7.14911621 84.83957275 -7.62977539 85.68817871 -8.125 86.5625 C-9.18949692 88.47545264 -10.25185757 90.38959504 -11.3125 92.3046875 C-11.89386719 93.35366211 -12.47523438 94.40263672 -13.07421875 95.48339844 C-17.23885117 103.0517543 -21.23540355 110.71291788 -25.26763916 118.35232544 C-26.34644974 120.39570195 -27.42706902 122.4381141 -28.5078125 124.48046875 C-28.83128662 125.09516022 -29.15476074 125.70985168 -29.48803711 126.34317017 C-30.89109463 128.99328071 -32.33418178 131.50127267 -34 134 C-35.32 134 -36.64 134 -38 134 C-38.71359001 63.07475022 -38.71359001 63.07475022 -21.10058594 37.22607422 C-17.60824604 31.86254802 -14.73400337 26.1798817 -11.78921509 20.50314331 C-9.25702097 15.63394091 -6.66022185 10.8005192 -4 6 C-3.61376465 5.30229492 -3.2275293 4.60458984 -2.82958984 3.88574219 C-1.82421875 2.2109375 -1.82421875 2.2109375 0 0 Z " fill="#36B1F8" transform="translate(233,177)"/>
<path d="M0 0 C0.66 0 1.32 0 2 0 C5.91283534 19.6791275 9.53919415 39.40112687 13.01953125 59.16113281 C13.35670631 61.07488116 13.69394549 62.98861821 14.03125 64.90234375 C14.19641113 65.83954254 14.36157227 66.77674133 14.53173828 67.74234009 C15.60854185 73.83470106 16.71443447 79.92107249 17.84375 86.00390625 C17.98627197 86.77428223 18.12879395 87.5446582 18.27563477 88.33837891 C18.93526078 91.90243152 19.59979115 95.4654266 20.2734375 99.02685547 C20.50289062 100.2645166 20.73234375 101.50217773 20.96875 102.77734375 C21.16919922 103.84202881 21.36964844 104.90671387 21.57617188 106.00366211 C22.0062288 109.04403577 22.07568966 111.93370863 22 115 C17.09026953 112.3920883 13.04720701 109.5993974 9.125 105.625 C8.61251709 105.10679687 8.10003418 104.58859375 7.57202148 104.0546875 C-7.33069474 88.46286856 -15.71616876 67.11338984 -15.40429688 45.58276367 C-14.80368673 29.43089024 -9.43350365 13.18789553 0 0 Z " fill="#030405" transform="translate(150,196)"/>
<path d="M0 0 C0.33 0 0.66 0 1 0 C-0.97498901 35.68316155 -0.97498901 35.68316155 -3 51 C-16.80356283 48.50361098 -16.80356283 48.50361098 -23 46 C-23.33 45.34 -23.66 44.68 -24 44 C-22.98706055 41.671875 -22.98706055 41.671875 -21.38671875 38.75 C-20.80229004 37.67411621 -20.21786133 36.59823242 -19.61572266 35.48974609 C-18.97940918 34.33812988 -18.3430957 33.18651367 -17.6875 32 C-17.04411596 30.82277966 -16.40137738 29.64520633 -15.75927734 28.46728516 C-13.85050465 24.97207262 -11.92646062 21.48549569 -10 18 C-9.45585449 17.01354492 -8.91170898 16.02708984 -8.35107422 15.01074219 C-5.58360581 9.99800296 -2.80046444 4.99437667 0 0 Z " fill="#010406" transform="translate(230,193)"/>
</svg>
