<?xml version="1.0" encoding="UTF-8"?>
<svg version="1.1" xmlns="http://www.w3.org/2000/svg" width="500" height="173">
<path d="M0 0 C6.6 0 13.2 0 20 0 C20.44730469 2.30871094 20.89460938 4.61742187 21.35546875 6.99609375 C21.80882723 9.33328565 22.26243552 11.67042894 22.71606445 14.00756836 C23.0216613 15.58271358 23.32701498 17.157906 23.63208008 18.7331543 C26.36314406 32.83380575 29.17242118 46.91840845 32 61 C32.16064438 60.25053604 32.32128876 59.50107208 32.48680115 58.72889709 C33.99852856 51.67936803 35.51381867 44.63061892 37.03315639 37.58272648 C37.81420786 33.95897516 38.59385919 30.33493419 39.37036133 26.71020508 C40.11923471 23.21469524 40.87171962 19.71998111 41.62675667 16.22579765 C41.91473266 14.88997758 42.20138759 13.55387204 42.48672295 12.21748543 C42.88539592 10.35136085 43.28912782 8.48631919 43.69311523 6.62133789 C43.92183823 5.55766495 44.15056122 4.493992 44.38621521 3.39808655 C45 1 45 1 46 0 C47.63472882 -0.08700342 49.27314055 -0.10701063 50.91015625 -0.09765625 C52.39418945 -0.09282227 52.39418945 -0.09282227 53.90820312 -0.08789062 C54.94912109 -0.07951172 55.99003906 -0.07113281 57.0625 -0.0625 C58.62967773 -0.05573242 58.62967773 -0.05573242 60.22851562 -0.04882812 C62.8190666 -0.03699913 65.40950559 -0.02051689 68 0 C69.51334369 3.53717078 70.53054336 6.94713519 71.32861328 10.70825195 C71.56871124 11.82903641 71.8088092 12.94982086 72.05618286 14.10456848 C72.30834564 15.3036937 72.56050842 16.50281891 72.8203125 17.73828125 C73.08383514 18.97418503 73.34735779 20.21008881 73.61886597 21.48344421 C74.31579694 24.75590141 75.00887106 28.02912678 75.70007324 31.30279541 C76.40748394 34.64851675 77.11997524 37.99315544 77.83203125 41.33789062 C79.22602613 47.89094197 80.61494417 54.44505381 82 61 C83.95220623 52.774723 85.72757641 44.54352617 87.26171875 36.23046875 C87.45723831 35.18345291 87.65275787 34.13643707 87.85420227 33.05769348 C88.46789338 29.76810544 89.07776899 26.4778241 89.6875 23.1875 C90.10716767 20.93419743 90.52708746 18.68094181 90.94726562 16.42773438 C91.96775216 10.95235994 92.98482154 5.47636097 94 0 C100.27 0 106.54 0 113 0 C110.02526366 15.32172841 106.6832891 30.53850314 103.19897461 45.75195312 C102.44958265 49.02607981 101.70374612 52.30097227 100.95985126 55.57634926 C100.24267464 58.73116117 99.52157069 61.88507438 98.80078125 65.0390625 C98.53413162 66.21280426 98.26748199 67.38654602 97.99275208 68.59585571 C97.7454686 69.67233368 97.49818512 70.74881165 97.2434082 71.85791016 C97.02675003 72.80574371 96.81009186 73.75357727 96.58686829 74.73013306 C96 77 96 77 95 79 C86.75 79 78.5 79 70 79 C68.02880385 71.1152154 66.15528373 63.27942602 64.51953125 55.328125 C64.30181564 54.27969421 64.08410004 53.23126343 63.85978699 52.15106201 C63.1750762 48.85117598 62.49372708 45.55060677 61.8125 42.25 C61.34462471 39.99214114 60.87652768 37.73432822 60.40820312 35.4765625 C59.2695759 29.98490252 58.13369659 24.49267985 57 19 C53.60437522 31.90805778 50.88460166 44.91872278 48.25 58 C47.83496533 60.04694192 47.41960282 62.0938174 47.00390625 64.140625 C45.99822921 69.09288326 44.99925565 74.046425 44 79 C35.42 79 26.84 79 18 79 C15.23961292 68.89180094 12.75850036 58.77955926 10.546875 48.53515625 C10.23901251 47.12163277 9.93083966 45.70817685 9.62237549 44.29478455 C8.82367077 40.63120626 8.02909402 36.96674553 7.23547363 33.30206299 C6.41996722 29.54000908 5.6004219 25.77883526 4.78125 22.01757812 C3.18362039 14.67922377 1.59074087 7.33985133 0 0 Z " fill="#FEFEFE" transform="translate(52,39)"/>
<path d="M0 0 C5.94 0 11.88 0 18 0 C19.06942219 4.27768876 19.06733372 8.13822106 19 12.5 C18.29651806 26.88235485 18.29651806 26.88235485 23 40 C25.87577027 42.31779699 25.87577027 42.31779699 29.4375 42 C33.14070615 41.30235972 33.14070615 41.30235972 35.3125 38.4375 C39.3566271 30.19946332 39.39618967 22.0284742 39.625 13 C39.66367187 11.74832031 39.70234375 10.49664062 39.7421875 9.20703125 C39.8358908 6.13824812 39.91900868 3.06914493 40 0 C45.94 0 51.88 0 58 0 C58.0746007 7.61309713 58.12881488 15.22597767 58.16479492 22.83935547 C58.17980712 25.4250052 58.20022313 28.01062978 58.22631836 30.59619141 C58.26303545 34.32981604 58.27980274 38.06310166 58.29296875 41.796875 C58.30845261 42.93799744 58.32393646 44.07911987 58.33988953 45.25482178 C58.34235137 57.20842964 56.34179776 67.83477976 48.28515625 76.9375 C41.69163069 83.40967233 34.17171375 85.07662554 25.125 85.375 C14.99862093 85.07252374 6.23293365 82.97291265 -2 77 C-0.35 71.72 1.3 66.44 3 61 C3.66 61 4.32 61 5 61 C5 61.66 5 62.32 5 63 C13.89918625 66.85631404 22.5674954 69.76912282 32.1875 67 C36.03665424 65.34388059 38.0290264 63.22331114 40.0390625 59.57421875 C42.02734437 54.24788642 42.43899976 48.6230489 43 43 C43.20378942 41.3744239 43.41112681 39.74928016 43.625 38.125 C43.810625 36.578125 43.810625 36.578125 44 35 C43.34 35 42.68 35 42 35 C41.9175 36.155 41.835 37.31 41.75 38.5 C40.84446935 45.60590027 37.6524309 51.53063603 32 56 C25.14824436 58.66457164 18.71429219 58.92783008 11.921875 56.09765625 C6.14099371 52.79597405 3.44455606 47.58352755 1.54296875 41.40625 C0.25497709 35.69831576 -0.12111319 30.15718428 -0.09765625 24.31640625 C-0.0962413 23.61603745 -0.09482635 22.91566864 -0.09336853 22.19407654 C-0.08782477 19.98350534 -0.07528326 17.77303996 -0.0625 15.5625 C-0.05747771 14.05273585 -0.05291609 12.54297009 -0.04882812 11.03320312 C-0.03872981 7.35539637 -0.01914421 3.67781496 0 0 Z " fill="#FEFEFE" transform="translate(239,55)"/>
<path d="M0 0 C7.41290031 8.26008891 8.30410028 17.59768277 8.50390625 28.2109375 C8.52468735 29.1346817 8.54546844 30.0584259 8.56687927 31.01016235 C8.63196119 33.94420344 8.69106643 36.87832962 8.75 39.8125 C8.7932246 41.80860235 8.83684012 43.80469627 8.88085938 45.80078125 C8.9875999 50.67960156 9.08898248 55.55850699 9.1875 60.4375 C3.9075 60.4375 -1.3725 60.4375 -6.8125 60.4375 C-7.90756492 57.15230525 -7.91210608 54.70086585 -7.875 51.25 C-7.86597656 50.16332031 -7.85695312 49.07664063 -7.84765625 47.95703125 C-7.83605469 47.12558594 -7.82445312 46.29414062 -7.8125 45.4375 C-8.4725 45.4375 -9.1325 45.4375 -9.8125 45.4375 C-10.01875 46.283125 -10.225 47.12875 -10.4375 48 C-12.8023637 53.91215924 -16.28134981 57.97468099 -22 60.875 C-27.91943066 63.17700081 -34.0507819 63.61382322 -40.1484375 61.70703125 C-44.4343229 59.75528046 -47.23331532 57.4610281 -49.8125 53.4375 C-51.60255211 48.06734366 -51.81709071 41.67515234 -50.12890625 36.234375 C-47.4960009 31.20891251 -43.8171951 28.49767641 -38.54296875 26.63671875 C-32.19943489 24.78216237 -25.72141771 23.60368334 -19.20751953 22.52709961 C-15.79186796 21.93713868 -13.74514033 21.39259356 -10.8125 19.4375 C-10.49404449 16.33255874 -10.81825359 14.42023923 -11.8125 11.4375 C-16.40815839 9.49318299 -21.5164493 9.93901896 -26.0625 11.6875 C-29.88408012 14.11941462 -31.39070787 16.17212362 -32.8125 20.4375 C-38.57012166 19.34853333 -44.20497819 18.14413707 -49.8125 16.4375 C-47.25005904 8.05899238 -43.66292503 2.69977404 -35.9140625 -1.62109375 C-24.62912587 -6.77077007 -10.75620309 -5.97566838 0 0 Z M-19.0625 32.25 C-19.82691406 32.41564453 -20.59132812 32.58128906 -21.37890625 32.75195312 C-25.64718669 33.72871851 -29.27439031 34.7169341 -32.8125 37.4375 C-33.80844721 40.55813459 -34.06564395 42.52618178 -33.1875 45.6875 C-31.2029157 48.21333456 -29.98057932 48.76344057 -26.8125 49.4375 C-20.40122595 48.97617216 -16.26863801 47.0023243 -11.8125 42.4375 C-9.04838237 38.7938904 -9.66610349 34.82939536 -9.8125 30.4375 C-12.85722504 30.4375 -16.08466662 31.57321969 -19.0625 32.25 Z " fill="#FDFDFD" transform="translate(218.8125,57.5625)"/>
<path d="M0 0 C5.94 0 11.88 0 18 0 C18 28.38 18 56.76 18 86 C12.06 86 6.12 86 0 86 C0 57.62 0 29.24 0 0 Z " fill="#FEFEFE" transform="translate(311,32)"/>
<path d="M0 0 C1.34988951 0.71977503 2.68557079 1.46734194 4 2.25 C5.546875 3.0853125 5.546875 3.0853125 7.125 3.9375 C13.19666508 8.82123061 18.54952496 15.44074597 20 23.25 C21.12302511 34.97157457 19.44109189 43.392806 12 52.5625 C5.19866278 59.60793088 -2.28129374 62.44639112 -12 62.875 C-21.01472973 62.49689875 -28.67649412 59.74081181 -35.4375 53.6875 C-42.48831177 45.81237621 -44.82793569 36.94107636 -44.42578125 26.51953125 C-43.81903652 21.86039971 -42.40082425 18.25689288 -40 14.25 C-39.38125 13.1775 -38.7625 12.105 -38.125 11 C-29.38997399 -0.30415131 -13.57246943 -5.90610871 0 0 Z M-32 14.25 C-37.42832551 21.78934099 -37.84191545 28.09661688 -37 37.25 C-34.85811106 44.76662894 -30.66286862 49.3587755 -24 53.25 C-17.76370782 56.52405339 -11.01895093 56.84971777 -4.30078125 55.09765625 C3.38906128 52.26455637 8.48434844 47.61089545 12 40.25 C14.15364435 33.78906695 14.31319976 25.10811884 11.5 18.8125 C7.57842447 12.35506467 1.23704097 7.30049494 -6 5.25 C-16.46783905 4.07713288 -25.06195913 5.92435096 -32 14.25 Z " fill="#FDFDFD" transform="translate(414,55.75)"/>
<path d="M0 0 C5.94 0 11.88 0 18 0 C18 20.79 18 41.58 18 63 C12.06 63 6.12 63 0 63 C0 42.21 0 21.42 0 0 Z " fill="#FEFEFE" transform="translate(344,55)"/>
<path d="M0 0 C3.0625 1.5625 3.0625 1.5625 5 4 C6.0985005 7.77609547 6.29418671 10.05439987 5.125 13.8125 C1.91400224 17.11793887 -1.47996239 17.70717364 -6 18 C-9.78053035 17.39023704 -12.0499159 16.82749261 -14.9375 14.3125 C-16.46207455 10.99430832 -16.45073373 8.60586981 -16 5 C-11.55977973 -0.62427901 -6.79090722 -0.7474269 0 0 Z " fill="#FDFDFD" transform="translate(358,29)"/>
<path d="M0 0 C0.99 0.33 1.98 0.66 3 1 C1.40246648 4.04145805 -0.28020646 7.02601556 -2 10 C-2.56976563 10.98613281 -3.13953125 11.97226563 -3.7265625 12.98828125 C-8.43519018 20.61315776 -13.49215454 25.20775822 -21 30 C-21.85722656 30.60070312 -22.71445312 31.20140625 -23.59765625 31.8203125 C-29.5755814 36 -29.5755814 36 -33 36 C-30.98675276 26.41451917 -23.65568862 15.32654158 -15.78515625 9.6328125 C-11.98149163 7.17808436 -8.00987024 5.09524751 -4 3 C-3.2471875 2.401875 -2.494375 1.80375 -1.71875 1.1875 C-1.1515625 0.795625 -0.584375 0.40375 0 0 Z M-6 7 C-9.3 9.31 -12.6 11.62 -16 14 C-15.34 15.32 -14.68 16.64 -14 18 C-13.01 18.33 -12.02 18.66 -11 19 C-8.69 15.37 -6.38 11.74 -4 8 C-4.66 7.67 -5.32 7.34 -6 7 Z " fill="#FCFDFD" transform="translate(417,68)"/>
</svg>
