<?xml version="1.0" encoding="UTF-8"?>
<svg version="1.1" xmlns="http://www.w3.org/2000/svg" width="500" height="173">
<path d="M0 0 C6.6 0 13.2 0 20 0 C23.22116065 15.72097431 26.22132931 31.46848796 29.03173828 47.26733398 C29.21746902 48.30471458 29.21746902 48.30471458 29.4069519 49.36305237 C29.74477175 51.25066712 30.07999108 53.13874675 30.41503906 55.02685547 C30.94204229 58.03802454 30.94204229 58.03802454 32 61 C36.29 40.87 40.58 20.74 45 0 C52.92 0 60.84 0 69 0 C73.29 19.8 77.58 39.6 82 60 C83.97587412 52.09650351 85.79465062 44.31947373 87.26171875 36.328125 C87.45723831 35.27969421 87.65275787 34.23126343 87.85420227 33.15106201 C88.46875248 29.85133827 89.078218 26.5507001 89.6875 23.25 C90.10708365 20.99212462 90.52700261 18.73431153 90.94726562 16.4765625 C91.96871481 10.98508616 92.98560982 5.49278447 94 0 C100.27 0 106.54 0 113 0 C110.02526366 15.32172841 106.6832891 30.53850314 103.19897461 45.75195312 C102.44958265 49.02607981 101.70374612 52.30097227 100.95985126 55.57634926 C100.24267464 58.73116117 99.52157069 61.88507438 98.80078125 65.0390625 C98.53413162 66.21280426 98.26748199 67.38654602 97.99275208 68.59585571 C97.7454686 69.67233368 97.49818512 70.74881165 97.2434082 71.85791016 C97.02675003 72.80574371 96.81009186 73.75357727 96.58686829 74.73013306 C96 77 96 77 95 79 C86.75 79 78.5 79 70 79 C68.02880385 71.1152154 66.15528373 63.27942602 64.51953125 55.328125 C64.30181564 54.27969421 64.08410004 53.23126343 63.85978699 52.15106201 C63.1750762 48.85117598 62.49372708 45.55060677 61.8125 42.25 C61.34462471 39.99214114 60.87652768 37.73432822 60.40820312 35.4765625 C59.2695759 29.98490252 58.13369659 24.49267985 57 19 C54.98143352 26.85602497 53.15386645 34.72746332 51.51953125 42.671875 C51.30181564 43.72030579 51.08410004 44.76873657 50.85978699 45.84893799 C50.1750762 49.14882402 49.49372708 52.44939323 48.8125 55.75 C48.34462471 58.00785886 47.87652768 60.26567178 47.40820312 62.5234375 C46.26916393 68.01501764 45.13468839 73.50751211 44 79 C35.42 79 26.84 79 18 79 C15.26850429 68.9733027 12.78038397 58.94007817 10.546875 48.7890625 C10.23895782 47.40036584 9.93078603 46.01172561 9.62237549 44.62313843 C8.98523555 41.7514644 8.35014609 38.87934835 7.71679688 36.00683594 C6.90380697 32.31972158 6.08699401 28.63346727 5.26887131 24.94748878 C4.63656228 22.09795784 4.00545214 19.24816258 3.37479401 16.39826584 C3.07355632 15.03699778 2.77211988 13.67577368 2.47048187 12.31459427 C2.05309925 10.4295399 1.63734586 8.54412501 1.22167969 6.65869141 C0.98503601 5.58696686 0.74839233 4.51524231 0.50457764 3.41104126 C0 1 0 1 0 0 Z " fill="#000000" transform="translate(52,41)"/>
<path d="M0 0 C6.27 0 12.54 0 19 0 C19.03738281 2.38476562 19.07476562 4.76953125 19.11328125 7.2265625 C19.15956462 9.55005785 19.21077329 11.87339644 19.26245117 14.19677734 C19.29559363 15.8047524 19.32365854 17.41284081 19.34643555 19.02099609 C19.38017967 21.34000705 19.43250194 23.65798931 19.48828125 25.9765625 C19.49467117 26.68930328 19.5010611 27.40204407 19.50764465 28.13638306 C19.64311288 32.79192751 20.56896649 36.03052251 23 40 C25.37691729 41.82230326 26.51267228 42.02436639 29.5 41.875 C32.77300393 40.72944862 33.93226062 39.82591048 36 37 C39.2912803 29.16263261 39.53025164 21.26756971 39.6875 12.875 C39.72166016 11.63234375 39.75582031 10.3896875 39.79101562 9.109375 C39.87275832 6.07321788 39.93807162 3.03662589 40 0 C45.94 0 51.88 0 58 0 C58.07458695 7.75551287 58.12880853 15.51081333 58.16479492 23.26660156 C58.17980939 25.90075319 58.20022713 28.53488012 58.22631836 31.16894531 C58.26302525 34.97206751 58.27980049 38.77485694 58.29296875 42.578125 C58.30845261 43.74112122 58.32393646 44.90411743 58.33988953 46.10235596 C58.34233945 58.21458474 56.37472758 68.87154694 48 78 C39.58308568 85.15437717 29.62305368 85.77083383 19 85 C10.90892933 83.82578566 4.62662825 81.80755383 -2 77 C-1.54548816 75.26982492 -1.08621143 73.54090123 -0.625 71.8125 C-0.36976563 70.84957031 -0.11453125 69.88664062 0.1484375 68.89453125 C0.94766296 66.17789793 1.9031362 63.60862825 3 61 C3.85271484 61.43119141 3.85271484 61.43119141 4.72265625 61.87109375 C13.7080287 66.32524922 21.95699603 69.9872102 32.125 67 C36.01744793 65.34797268 38.01031074 63.25728822 40.0390625 59.57421875 C42.02734437 54.24788642 42.43899976 48.6230489 43 43 C43.20378942 41.3744239 43.41112681 39.74928016 43.625 38.125 C43.810625 36.578125 43.810625 36.578125 44 35 C43.34 35 42.68 35 42 35 C41.9071875 36.9490625 41.9071875 36.9490625 41.8125 38.9375 C41.03138833 45.81562216 38.30371172 51.119419 32.9375 55.5 C26.55239801 58.76047761 20.05012427 58.96587269 13.25 56.8125 C6.54289796 53.07200078 4.27449394 48.96106063 1.796875 41.9140625 C0.19768467 36.06604298 -0.12191712 30.35736245 -0.09765625 24.31640625 C-0.0962413 23.61603745 -0.09482635 22.91566864 -0.09336853 22.19407654 C-0.08782477 19.98350534 -0.07528326 17.77303996 -0.0625 15.5625 C-0.05747771 14.05273585 -0.05291609 12.54297009 -0.04882812 11.03320312 C-0.03872981 7.35539637 -0.01914421 3.67781496 0 0 Z " fill="#000000" transform="translate(239,57)"/>
<path d="M0 0 C7.41290031 8.26008891 8.30410028 17.59768277 8.50390625 28.2109375 C8.52468735 29.1346817 8.54546844 30.0584259 8.56687927 31.01016235 C8.63196119 33.94420344 8.69106643 36.87832962 8.75 39.8125 C8.7932246 41.80860235 8.83684012 43.80469627 8.88085938 45.80078125 C8.9875999 50.67960156 9.08898248 55.55850699 9.1875 60.4375 C3.9075 60.4375 -1.3725 60.4375 -6.8125 60.4375 C-7.90756492 57.15230525 -7.91210608 54.70086585 -7.875 51.25 C-7.86597656 50.16332031 -7.85695312 49.07664063 -7.84765625 47.95703125 C-7.83605469 47.12558594 -7.82445312 46.29414062 -7.8125 45.4375 C-8.4725 45.4375 -9.1325 45.4375 -9.8125 45.4375 C-9.91046875 46.17742187 -10.0084375 46.91734375 -10.109375 47.6796875 C-11.5016335 53.14043471 -16.03331505 57.15483178 -20.5 60.375 C-26.53061322 63.14582229 -33.8054022 63.66022968 -40.16796875 61.71875 C-44.43223897 59.73462427 -47.23428583 57.4595141 -49.8125 53.4375 C-51.60255211 48.06734366 -51.81709071 41.67515234 -50.12890625 36.234375 C-47.25984846 30.75816512 -42.85544773 28.09762883 -37.11328125 26.2421875 C-35.78692644 25.91939546 -34.45728986 25.60984747 -33.125 25.3125 C-32.42673096 25.14637207 -31.72846191 24.98024414 -31.0090332 24.80908203 C-26.02276405 23.6445314 -21.01392404 22.6897811 -15.94921875 21.9296875 C-13.53097874 21.50532353 -13.53097874 21.50532353 -10.8125 19.4375 C-11.04881735 15.8927398 -11.21356569 14.01771761 -13.8125 11.5 C-18.04571978 10.00073466 -21.50040245 10.28708559 -25.8125 11.4375 C-29.93997451 13.89642099 -31.18647375 16.0333751 -32.8125 20.4375 C-44.33414009 18.51039294 -44.33414009 18.51039294 -49.8125 16.4375 C-47.59414193 9.12996753 -44.28245767 3.09345087 -37.53125 -0.91796875 C-25.59979177 -6.4263253 -11.57053552 -6.42807529 0 0 Z M-19.0625 32.25 C-19.82691406 32.41564453 -20.59132812 32.58128906 -21.37890625 32.75195312 C-25.65099808 33.72959072 -29.26380374 34.72621369 -32.8125 37.4375 C-34.06579784 40.29039698 -34.06579784 40.29039698 -33.8125 43.4375 C-31.93222468 46.82199557 -30.65819881 48.13680709 -27 49.4375 C-21.56595768 49.4375 -18.01222012 47.50391789 -14 43.9375 C-11.0757808 40.5955352 -9.54215243 38.6831009 -9.6875 34.25 C-9.72875 32.991875 -9.77 31.73375 -9.8125 30.4375 C-12.85722504 30.4375 -16.08466662 31.57321969 -19.0625 32.25 Z " fill="#000000" transform="translate(218.8125,59.5625)"/>
<path d="M0 0 C8.50374193 5.04793969 13.22415247 12.04699644 15.69140625 21.59765625 C16.7867986 30.36079506 15.93332423 37.82545785 11.69140625 45.59765625 C11.16546875 46.56638672 11.16546875 46.56638672 10.62890625 47.5546875 C6.35761009 54.36206576 -0.65563259 58.55126004 -8.30859375 60.59765625 C-19.37363524 61.59304701 -28.08945382 60.66401697 -37.55859375 54.47265625 C-45.63720552 46.02683486 -48.862725 36.84526567 -48.69140625 25.28125 C-47.9509747 18.15648516 -45.38446165 12.08869772 -40.80859375 6.59765625 C-39.98359375 5.93765625 -39.15859375 5.27765625 -38.30859375 4.59765625 C-37.58671875 3.91703125 -36.86484375 3.23640625 -36.12109375 2.53515625 C-25.00742623 -5.12092582 -12.17547155 -5.82023207 0 0 Z M-37.93359375 14.53515625 C-42.2860707 21.06387168 -42.02102615 27.99265498 -41.30859375 35.59765625 C-39.94023839 40.05997768 -37.68736554 43.39314776 -34.30859375 46.59765625 C-33.83421875 45.54578125 -33.35984375 44.49390625 -32.87109375 43.41015625 C-30.49604039 38.59959364 -27.44190858 34.32741253 -24.30688477 29.99145508 C-22.02557885 27.08689787 -22.02557885 27.08689787 -21.30859375 23.59765625 C-20.64214844 23.37078125 -19.97570312 23.14390625 -19.2890625 22.91015625 C-15.42855663 21.21011697 -12.10306519 18.96174937 -8.62109375 16.59765625 C-7.94498047 16.14648438 -7.26886719 15.6953125 -6.57226562 15.23046875 C-3.94233841 13.46148288 -1.55632715 11.84538965 0.69140625 9.59765625 C-0.57691068 8.78123371 -1.84835306 7.9696652 -3.12109375 7.16015625 C-3.82878906 6.70769531 -4.53648437 6.25523438 -5.265625 5.7890625 C-17.0429971 -1.07919465 -30.02593824 5.10679775 -37.93359375 14.53515625 Z M1.69140625 11.59765625 C1.20450317 12.44976685 1.20450317 12.44976685 0.70776367 13.3190918 C-7.37949232 27.16356723 -15.52388253 36.44346585 -29.44604492 44.51049805 C-31.1041734 45.47833736 -32.71112154 46.53267478 -34.30859375 47.59765625 C-33.04027682 48.41407879 -31.76883444 49.2256473 -30.49609375 50.03515625 C-29.78839844 50.48761719 -29.08070313 50.94007812 -28.3515625 51.40625 C-22.56586458 54.78031858 -15.78258472 54.10118888 -9.30859375 53.59765625 C-1.835408 51.62226002 3.65851152 45.87651872 7.62890625 39.47265625 C9.92382217 33.17232807 9.89346476 24.77308532 7.44140625 18.53515625 C5.76687378 15.72433389 4.03277394 13.84711075 1.69140625 11.59765625 Z M-12.93359375 21.59765625 C-14.15949219 22.43296875 -14.15949219 22.43296875 -15.41015625 23.28515625 C-16.03664063 23.71828125 -16.663125 24.15140625 -17.30859375 24.59765625 C-16.51741471 26.59749159 -16.51741471 26.59749159 -15.30859375 28.59765625 C-14.31859375 28.92765625 -13.32859375 29.25765625 -12.30859375 29.59765625 C-10.32859375 25.96765625 -8.34859375 22.33765625 -6.30859375 18.59765625 C-9.18136452 18.59765625 -10.58529935 19.98739723 -12.93359375 21.59765625 Z " fill="#010101" transform="translate(418.30859375,59.40234375)"/>
<path d="M0 0 C5.94 0 11.88 0 18 0 C18 28.38 18 56.76 18 86 C12.06 86 6.12 86 0 86 C0 57.62 0 29.24 0 0 Z " fill="#000000" transform="translate(311,34)"/>
<path d="M0 0 C5.94 0 11.88 0 18 0 C18 20.79 18 41.58 18 63 C12.06 63 6.12 63 0 63 C0 42.21 0 21.42 0 0 Z " fill="#000000" transform="translate(344,57)"/>
<path d="M0 0 C3.0625 1.5625 3.0625 1.5625 5 4 C6.09065765 7.74913567 6.27104317 10.06177366 5.1875 13.8125 C1.72681226 17.27318774 -2.19632614 17.84715583 -7 18 C-11.20752373 17.11703425 -13.57284762 15.64072857 -16 12 C-16.67092652 5.84984026 -16.67092652 5.84984026 -14.125 2.625 C-9.70007223 -0.7587683 -5.41674573 -0.59618271 0 0 Z " fill="#010101" transform="translate(358,31)"/>
</svg>
